<svg xmlns="http://www.w3.org/2000/svg" width="486" height="416">
    <g fill="none" fill-rule="evenodd">
        <path d="M0 0h486v416H0z"/>
        <path fill="#FFF" fill-rule="nonzero"
              d="M298.005 60.408l-1.514 6.741-.344-.125a9.746 9.746 0 01-.716-.299l-.18-.08a14.2 14.2 0 01-.751-.373c-.115-.06-.227-.126-.342-.189a13.833 13.833 0 01-.657-.406c-.067-.044-.138-.09-.203-.137-.21-.14-.412-.298-.61-.433l-.294-.227a11.97 11.97 0 01-.472-.379c-.097-.08-.194-.161-.294-.242l-.318-.277-.295-.263-.294-.263-.59-.507c-.123-.11-.253-.224-.386-.335l1.515-6.741c1.876 1.588 3.355 3.26 6.377 4.404.139.05.254.092.368.131zm-14.537-8.231l-1.502 6.68c-3.506-.923-7.419-1.61-7.419-1.61l1.502-6.68s3.907.683 7.419 1.61zm13.216 14.973a30.71 30.71 0 001.652.663 23.997 23.997 0 01-1.652-.664z"/>
        <path fill="#24272D" fill-rule="nonzero"
              d="M296.684 67.34l-1.647 7.437-.34-.125c-2.97-1.142-4.43-2.805-6.273-4.391l1.647-7.423c.13.11.258.223.38.333l.58.506.29.262.29.261.312.277c.09.08.186.16.29.241.151.128.29.256.464.378l.29.226c.194.146.394.298.6.431.064.048.134.093.2.137.206.14.423.271.647.405.113.062.223.128.336.187.238.128.481.253.74.372l.176.08c.226.102.461.2.705.298l.313.107zm-14.538-8.206l-1.69 7.352c-3.572-.922-7.561-1.603-7.561-1.603l1.694-7.352s3.976.672 7.557 1.603z"/>
        <path fill="#FFF" fill-rule="nonzero"
              d="M298.336 67.813a23.997 23.997 0 01-1.652-.664 30.71 30.71 0 001.652.664zm-3.304 6.779l-1.401 6.155c-3.194-1.172-5.07-2.438-6.86-3.634l1.59-6.979c1.86 1.562 3.33 3.2 6.329 4.326l.342.132zm-14.538-8.168l-1.63 7.027c-4.467-1.298-7.621-1.438-7.621-1.438l1.664-7.185s3.988.684 7.587 1.596z"/>
        <path fill="#24272D" fill-rule="nonzero"
              d="M288.093 69.938l-1.588 7.16c-1.67-1.139-3.264-2.225-5.782-3.124a40.857 40.857 0 00-1.88-.62l1.596-7.2c.652.178 1.293.358 1.895.548a15.426 15.426 0 015.76 3.236z"/>
        <path fill="#FFF" fill-rule="nonzero"
              d="M290.076 62.638l-1.709 7.496a15.998 15.998 0 00-5.923-3.233c-.62-.19-1.279-.37-1.95-.547l1.709-7.496c.337.087.67.177.996.267.325.09.644.184.953.28.175.05.343.108.509.165.165.057.328.111.484.168.157.057.301.117.46.178l.223.093c.147.06.3.12.43.183l.208.096c.138.063.274.13.409.198.135.07.24.12.358.187.114.06.223.12.33.186.5.285.982.6 1.445.94l.204.154c.305.228.593.456.864.685z"/>
        <path fill="#24272D" fill-rule="nonzero"
              d="M291.397 55.896l-1.52 6.61a19.56 19.56 0 00-.835-.659l-.202-.149a14.72 14.72 0 00-1.42-.916 5.792 5.792 0 00-.326-.182 7.29 7.29 0 00-.352-.181 11.062 11.062 0 00-.402-.193l-.204-.094a7.951 7.951 0 00-.424-.179l-.219-.09a13.27 13.27 0 00-.452-.173 17.713 17.713 0 00-.477-.164c-.163-.053-.328-.111-.5-.161-.296-.094-.622-.182-.938-.272a32.288 32.288 0 00-.98-.26l1.521-6.608c.663.17 1.311.345 1.918.533a15.656 15.656 0 015.812 3.138zm11.564 20.391l-1.439 6.45s-3.076-.15-7.625-1.772l-.517-.19 1.416-6.33a33.486 33.486 0 008.165 1.842z"/>
        <path fill="#FFF" fill-rule="nonzero"
              d="M304.944 68.998l-1.693 7.438a34.212 34.212 0 01-8.22-1.831l1.69-7.456c.512.188 1.018.355 1.512.501l.494.146.481.135c1.378.371 2.776.661 4.186.867h.027c.149.021.297.042.416.054h.027l.247.03c.532.098.833.116.833.116z"/>
        <path fill="#24272D" fill-rule="nonzero"
              d="M306.265 62.347l-1.502 6.792s-.293-.02-.816-.087l-.243-.03h-.026l-.41-.054h-.026c-1.386-.208-2.76-.5-4.114-.875l-.473-.135-.486-.148c-.485-.15-.98-.318-1.485-.505l1.503-6.789a32.764 32.764 0 008.078 1.831z"/>
        <path stroke="#1C2028" stroke-width="3" d="M264.965 96.003l10.243-45.768"/>
        <path fill="#F0C27E" fill-rule="nonzero"
              d="M112.153 141.21l-10.459 34.828-1.268 4.406 15.035.896 6.764-11.876z"/>
        <path fill="#24272D" fill-rule="nonzero"
              d="M261 252.137l-6.013 6.73a29.054 29.054 0 01-39.286 3.747L111.66 183.307l15.602-21.866 133.74 90.696z"/>
        <path fill="#E8EBF0" fill-rule="nonzero"
              d="M240.185 334.206c68.61 0 124.231-2.284 124.231-5.103 0-2.82-55.621-5.103-124.23-5.103-68.612 0-124.231 2.283-124.231 5.103s55.62 5.103 124.23 5.103z"/>
        <path fill="#F0C27E" fill-rule="nonzero"
              d="M286.05 280.897l-1.224 2.787a19.05 19.05 0 00-1.2 3.512c-.56 2.232.276 3.551-1.1 7.07-1.561 3.985 2.875 2.213 3.978.464.86-1.367.517-3.178 1.76-4.024.532.648 1.67 1.565 2.935 7.235.228 1.018-.928 7.989 3.626 8.957 3.747.136 6.505-6.058 6.883-8.049a16.798 16.798 0 00-.293-7.693c-.695-2.767-.657-3.705-2.42-7.078a30.813 30.813 0 00-2.935-4.374"/>
        <path fill="#72A065" fill-rule="nonzero"
              d="M243.823 283.094l-117.214-88.797a8.275 8.275 0 00-11.622 1.634l-.002.003c-2.76 3.674-2.031 8.899 1.628 11.67l117.213 88.797a8.275 8.275 0 0011.622-1.634l.002-.002c2.76-3.674 2.031-8.9-1.627-11.67z"/>
        <path fill="#72A065" fill-rule="nonzero"
              d="M370.002 125.506l-137.365 158.78c-3.006 3.475-2.636 8.736.825 11.754l.002.001a8.279 8.279 0 0011.71-.828l137.363-158.78c3.006-3.474 2.636-8.736-.823-11.753l-.003-.002a8.278 8.278 0 00-11.709.828z"/>
        <path fill="#274992" fill-rule="nonzero"
              d="M275.108 99.256l-21.448 4.931s1.636 36.496 4.09 44.175c1.666 5.208 9.058 22.258 13.642 32.689-.626.335-1.205.713-1.736 1.103-1.963 1.446-15.803 17.42-27.967 29.091-8.096 7.769 13.882 46.683 13.882 46.683l31.65-35.018c.289 6.202.332 12.675-.266 17.55-1.604 13.077-6.202 41.205-6.202 41.205h23.243s5.612-34.074 6.203-43.78c.59-9.705-2.612-51.219-2.612-51.219l-2.826 3.795c-.272-3.942-1.11-6.075-5.16-8.075l.361-.104-20.355-40.846-4.499-42.18z"/>
        <g fill-rule="nonzero">
            <path fill="#F0C27E"
                  d="M290.974 192.593a8.549 8.549 0 01-1.23-5.315 8.58 8.58 0 012.234-4.984l19.861-21.538a8.63 8.63 0 0112.124-.477 8.566 8.566 0 012.768 5.925 8.576 8.576 0 01-2.228 6.154l-19.86 21.539a8.641 8.641 0 01-7.165 2.74 8.613 8.613 0 01-3.73-1.26 8.57 8.57 0 01-2.774-2.784z"/>
            <path fill="#F0C27E"
                  d="M304.205 185.035l-1.713-.905a15.5 15.5 0 01-5.089-4.297 15.168 15.168 0 01-2.779-6 14.83 14.83 0 01.06-6.562 14.768 14.768 0 012.886-5.882l6.9-8.535a15.089 15.089 0 018.9-5.316 15.565 15.565 0 0110.355 1.613c1.77.959 3.335 2.25 4.605 3.799a15.22 15.22 0 012.8 5.23c.578 1.903.77 3.895.568 5.863a14.76 14.76 0 01-1.752 5.603l-5.186 9.436c-1.908 3.469-5.137 6.04-8.985 7.154a15.543 15.543 0 01-11.57-1.2z"/>
            <path fill="#F0C27E" d="M302.925 155.62l-9.045 4.837 2.924 1.962"/>
            <path fill="#24272D"
                  d="M319.256 177.426c-3.638-2.69 5.794-14.58 5.794-14.58l-6.378.756c-1.482.337.593-8.882.593-8.882s-16.69-4.485-9.8-17.823c3.966-7.67 8.003 1.14 12.058 3.295 6.374 3.38 12.871 2.688 17.935 12.679 6.06 11.956-10.454 31.753-20.202 24.555z"/>
            <path fill="#F0C27E"
                  d="M331.125 166.181l-.001-.003a5.693 5.693 0 00-7.501-2.884l-2.946 1.305a5.657 5.657 0 00-2.876 7.481l.001.003a5.693 5.693 0 007.501 2.884l2.946-1.305a5.657 5.657 0 002.876-7.48z"/>
        </g>
        <path fill="#24272D" fill-rule="nonzero"
              d="M151.743 181.34c.26 2.078 3.902 27.963 9.06 27.963l50.608-6.318 3.223 46.654a24.667 24.667 0 002.577 9.394 24.594 24.594 0 006.009 7.655 24.503 24.503 0 008.5 4.715 24.453 24.453 0 009.656 1.036 15.412 15.412 0 006.226-1.975 15.467 15.467 0 004.856-4.379 15.545 15.545 0 002.532-12.55l-15.807-68.884a18.378 18.378 0 00-7.569-11.088 18.269 18.269 0 00-13.068-2.953l-66.803 10.73z"/>
        <path fill="#F0C27E" fill-rule="nonzero"
              d="M129.206 170.582l14.316 33.42 1.852 4.193 12.093-9.004-2.432-13.456zm141.093-70.104l.684-1.012c.725-1.01.732-1.844 1.234-2.972.418-1.606 1.555-3.923 0-7.095-1.57-3.203-2.645-4.46-3.248-3.88-.071.07-1.314 6.49-1.871 6.67-1.086-1.275-1.397-2.79-.254-7.82.238-1.044 2.335-7.638-2.21-9.415-3.853-.817-7.772 4.732-8.507 6.61a15.774 15.774 0 00-1.021 7.571c.243 2.831.042 3.74 1.286 7.36.616 1.66 1.802 4.902 2.704 6.442l11.203-2.459z"/>
    </g>
</svg>
